<?xml version="1.0" standalone="no"?>
<!DOCTYPE svg PUBLIC "-//W3C//DTD SVG 20010904//EN"
 "http://www.w3.org/TR/2001/REC-SVG-20010904/DTD/svg10.dtd">
<svg version="1.0" xmlns="http://www.w3.org/2000/svg"
 width="1320.000000pt" height="1000.000000pt" viewBox="0 0 1320.000000 1000.000000"
 preserveAspectRatio="xMidYMid meet">

<g transform="translate(0.000000,1000.000000) scale(0.100000,-0.100000)"
fill="#000000" stroke="none">
<path d="M0 5000 l0 -5000 6600 0 6600 0 0 5000 0 5000 -6600 0 -6600 0 0
-5000z m3672 1370 c155 -68 365 -162 464 -210 l182 -88 7 -105 c11 -162 -9
-399 -52 -602 -24 -117 -106 -381 -123 -399 -7 -7 -25 2 -78 40 -2 1 13 49 32
105 45 132 82 285 101 419 18 128 31 392 21 444 -7 38 -9 39 -149 105 -78 37
-250 114 -382 172 -132 57 -294 131 -361 165 l-120 61 -110 -56 c-60 -31 -226
-108 -369 -170 -143 -62 -322 -143 -397 -179 l-138 -65 0 -151 c0 -264 40
-506 124 -748 l34 -98 -32 -25 c-39 -30 -52 -31 -59 -7 -3 9 -24 70 -46 134
-46 134 -95 365 -111 517 -11 110 -14 392 -4 427 7 26 144 93 576 283 317 139
382 170 472 224 l58 35 88 -52 c48 -29 216 -108 372 -176z m-352 -150 l0 -150
-105 0 -105 0 0 150 0 150 105 0 105 0 0 -150z m-105 -170 l125 0 0 135 c0 74
3 135 7 135 3 0 28 -14 55 -31 92 -59 147 -145 191 -300 18 -61 30 -85 45 -90
14 -5 22 -20 27 -51 3 -24 9 -51 11 -60 5 -17 -22 -18 -460 -18 l-466 0 0 56
c0 45 3 57 18 61 13 3 23 24 35 75 35 151 115 267 224 326 l58 31 3 -135 3
-134 124 0z m325 -309 c-33 -20 -150 -51 -230 -62 -132 -17 -332 9 -417 55
-25 14 4 15 317 15 203 0 339 -3 330 -8z m-664 -118 c7 -43 14 -80 14 -82 0
-2 -7 3 -17 10 -36 31 -56 122 -31 147 17 17 18 12 34 -75z m705 63 c16 -34 3
-91 -27 -123 l-26 -28 6 25 c4 14 9 53 13 88 6 66 17 77 34 38z m2007 -1 c75
-18 152 -55 210 -102 49 -40 126 -137 120 -152 -1 -6 -50 -39 -107 -74 l-103
-63 -59 57 c-37 37 -72 62 -96 68 -85 24 -174 6 -207 -40 -23 -33 -21 -100 5
-133 26 -33 49 -45 183 -95 232 -87 342 -164 398 -279 30 -60 33 -75 32 -153
-1 -74 -5 -96 -31 -150 -39 -84 -107 -151 -196 -193 -97 -45 -154 -58 -268
-58 -134 1 -244 39 -351 125 -37 30 -105 120 -125 169 -14 33 -18 29 115 99
99 51 104 52 115 34 27 -50 111 -124 155 -139 67 -23 149 -21 202 7 55 27 72
57 67 120 -7 79 -43 107 -237 179 -257 97 -351 182 -382 347 -51 277 242 501
560 426z m1952 -11 c71 -16 189 -70 234 -108 l30 -25 -37 -43 c-19 -24 -60
-70 -89 -102 l-54 -59 -54 25 c-119 55 -240 61 -355 18 -45 -17 -75 -39 -120
-84 -73 -74 -104 -146 -112 -257 -15 -200 90 -363 266 -415 86 -25 215 -15
289 22 56 29 103 82 117 132 l6 22 -145 0 -146 0 0 130 0 130 291 0 291 0 -4
-137 c-4 -117 -8 -150 -31 -212 -65 -183 -210 -316 -397 -367 -92 -24 -251
-22 -353 5 -320 85 -528 376 -503 706 33 443 424 719 876 619z m-1080 -664 l0
-670 -155 0 -155 0 0 670 0 670 155 0 155 0 0 -670z m2082 478 c48 -106 139
-310 203 -453 64 -143 120 -266 124 -273 4 -7 93 180 216 453 l209 465 153 0
153 0 0 -670 0 -670 -160 0 -160 0 -2 321 -3 321 -135 -321 -135 -321 -132 0
-131 0 -75 178 c-41 97 -101 240 -133 317 l-59 140 -3 -317 -2 -318 -160 0
-160 0 0 670 0 670 153 0 153 0 86 -192z m2305 -311 c122 -276 256 -577 297
-669 l74 -168 -162 0 -162 0 -45 108 -44 107 -320 0 -320 0 -44 -107 -45 -108
-162 0 -162 0 74 168 c41 92 174 393 297 669 l222 502 140 1 140 0 222 -503z
m-7844 208 c59 -114 125 -160 218 -153 109 8 166 70 240 259 43 112 45 82 3
-51 -29 -92 -81 -171 -136 -207 -33 -22 -55 -28 -112 -31 -64 -3 -75 -1 -113
25 -76 51 -133 140 -172 267 -36 116 -24 130 18 21 21 -55 45 -113 54 -130z
m20 -305 c70 -118 180 -270 192 -266 14 4 105 133 175 248 59 98 59 98 67 200
l8 101 58 -87 c57 -86 59 -91 83 -224 13 -74 22 -137 20 -140 -3 -2 -47 21
-100 52 -52 31 -98 56 -102 56 -3 0 -4 -22 0 -49 l6 -48 -100 -68 c-55 -38
-98 -71 -96 -73 3 -2 55 26 115 63 93 55 111 70 111 91 0 13 2 24 4 24 3 0 48
-25 101 -56 53 -31 98 -54 102 -51 3 3 -5 63 -16 133 -12 69 -19 129 -17 132
3 2 74 -24 158 -58 282 -116 277 -114 334 -188 29 -37 84 -109 124 -160 l72
-92 -44 29 c-59 40 -278 154 -284 149 -2 -3 42 -32 98 -65 211 -125 358 -246
374 -309 29 -116 -188 -659 -284 -708 -78 -40 -274 -61 -430 -45 -200 20 -332
71 -562 213 -177 110 -274 160 -363 187 l-67 21 22 40 c52 92 129 108 278 58
104 -35 93 -35 460 -11 129 9 289 -3 393 -28 42 -10 80 -14 83 -10 7 12 56
-14 124 -64 30 -23 48 -32 41 -21 -31 41 -77 86 -108 105 l-33 20 42 55 c24
32 59 64 82 76 46 23 76 47 76 60 0 5 -4 7 -8 4 -19 -12 -115 -44 -98 -33 10
6 32 21 50 32 17 12 32 30 34 41 5 35 -24 49 -99 47 -63 -1 -68 0 -73 23 -7
28 -41 39 -92 31 -31 -5 -35 -4 -29 11 4 9 9 49 12 89 6 73 -8 133 -30 133 -7
0 -7 -4 1 -12 17 -17 15 -94 -4 -159 -18 -61 -62 -146 -107 -202 l-30 -38 -66
6 c-36 3 -76 11 -89 17 -34 17 -588 -7 -842 -37 l-45 -6 -41 58 c-110 156
-143 240 -129 331 9 63 -12 44 -24 -22 -12 -67 -4 -121 29 -191 53 -112 63
-207 30 -281 l-21 -45 22 -30 c21 -29 19 -29 -32 10 -62 47 -189 116 -189 103
0 -4 15 -15 33 -24 38 -19 113 -82 127 -107 8 -16 -1 -21 -76 -39 -47 -12 -96
-22 -111 -22 -36 0 -97 -37 -116 -70 -26 -43 -20 -47 16 -12 23 22 48 35 86
42 29 5 83 19 118 30 88 27 232 27 339 0 90 -23 270 -107 375 -175 l73 -47
-35 -18 c-61 -32 -238 -89 -343 -112 -190 -41 -656 -21 -694 30 -17 23 -83
235 -126 406 l-34 139 30 86 c17 47 45 116 64 152 33 66 127 192 179 239 55
50 189 204 160 183 -16 -12 -46 -38 -65 -58 -62 -65 -76 -62 -29 6 l45 64 219
91 c121 50 221 88 223 83 2 -4 -9 -67 -23 -140 -14 -72 -24 -133 -22 -135 2
-2 47 23 101 56 53 33 99 60 101 60 3 0 5 -12 5 -27 1 -25 13 -35 107 -91 58
-34 108 -61 110 -58 2 2 -39 34 -92 72 l-97 67 5 44 c3 25 0 43 -5 43 -6 0
-55 -29 -109 -65 -55 -35 -99 -59 -99 -53 0 6 12 72 26 147 24 126 30 143 82
233 l57 97 8 -102 c8 -99 10 -105 60 -187z m977 -609 c0 -4 -11 -18 -25 -31
-37 -35 -31 -39 31 -18 58 20 149 21 149 3 0 -5 -23 -24 -50 -42 -27 -18 -74
-56 -104 -86 -84 -81 -109 -97 -150 -96 -75 1 -75 2 -27 122 44 110 82 163
120 170 23 3 56 -9 56 -22z m-480 -195 c0 -52 -1 -54 -31 -60 -17 -3 -44 -6
-60 -6 -29 0 -29 1 -29 60 l0 60 60 0 60 0 0 -54z m-795 -175 c-6 -5 -28 -6
-50 -1 l-40 8 50 1 c29 1 45 -3 40 -8z m355 -471 c52 -43 104 -84 117 -91 22
-12 41 1 224 150 28 23 31 23 80 9 27 -7 49 -18 47 -23 -5 -16 -147 -136 -244
-207 l-90 -66 -105 78 c-109 81 -234 187 -234 198 0 7 71 30 95 31 8 0 58 -35
110 -79z"/>
<path d="M3150 6306 c0 -31 4 -37 28 -42 15 -4 44 -15 64 -25 56 -28 59 -26
56 39 l-3 57 -72 3 -73 3 0 -35z"/>
<path d="M2843 5899 c7 -4 57 -15 112 -24 138 -24 357 -23 505 1 l115 19 -100
2 c-257 7 -642 7 -632 2z"/>
<path d="M10388 5077 c-54 -127 -100 -240 -104 -249 -6 -17 8 -18 204 -18
l210 0 -99 233 c-55 127 -103 240 -107 249 -5 12 -36 -52 -104 -215z"/>
<path d="M4357 4136 c-85 -160 -197 -285 -301 -336 -97 -48 -269 -58 -412 -24
-20 5 -26 3 -19 -4 14 -15 195 -60 285 -70 87 -11 218 1 261 23 44 23 125 166
187 330 68 180 67 210 -1 81z"/>
</g>
</svg>
